<svg width="24" height="24" viewBox="0 0 24 24" fill="currentcolor" xmlns="http://www.w3.org/2000/svg">
	<path fill-rule="evenodd" clip-rule="evenodd" d="M12 1.5C8.96243 1.5 6.5 3.96243 6.5 7C6.5 10.0376 8.96243 12.5 12 12.5C15.0376 12.5 17.5 10.0376 17.5 7C17.5 3.96243 15.0376 1.5 12 1.5ZM7.5 7C7.5 4.51472 9.51472 2.5 12 2.5C14.4853 2.5 16.5 4.51472 16.5 7C16.5 9.48528 14.4853 11.5 12 11.5C9.51472 11.5 7.5 9.48528 7.5 7ZM12 13.5C6.81029 13.5 2.5 17.2518 2.5 22H3.5C3.5 17.9116 7.24859 14.5 12 14.5C16.7514 14.5 20.5 17.9116 20.5 22H21.5C21.5 17.2518 17.1897 13.5 12 13.5Z">
    </path>
</svg>